<?xml version="1.0" encoding="utf-8"?>
<!-- Generator: Adobe Illustrator 19.2.1, SVG Export Plug-In . SVG Version: 6.00 Build 0)  -->
<svg version="1.1" id="Layer_1" xmlns="http://www.w3.org/2000/svg" xmlns:xlink="http://www.w3.org/1999/xlink" x="0px" y="0px"
	 viewBox="0 0 100 100" preserveAspectRatio="xMaxYMin meet" style="enable-background:new 0 0 100 100;" xml:space="preserve">
<style type="text/css">
	.st0{fill:#CECECE;}
	.st1{fill:#009E9A;}
	.st2{fill:#FFFFFF;}
	.st3{fill-rule:evenodd;clip-rule:evenodd;fill:#009E9A;}
	.st4{fill:#009E9B;}
	.st5{fill:#4775F6;}
	.st6{fill:#4775F6;}
	.st7{fill-rule:evenodd;clip-rule:evenodd;fill:#4775F6;}
	.st8{fill-rule:evenodd;clip-rule:evenodd;fill:#4775F6;}
	.st9{opacity:0.8;fill:#FFFFFF;}
	.st10{fill:#105452;}
	.st11{fill:#FCED1C;}
	.st12{fill:#D2E3E3;}
	.st13{fill:#055351;}
	.st14{fill:#84BDBD;}
	.st15{fill:#406968;}
	.st16{fill:#231F20;}
	.st17{fill:none;stroke:#00302F;stroke-width:2.2451;stroke-miterlimit:10;}
	.st18{fill:none;stroke:#84B09A;stroke-width:0.5613;stroke-miterlimit:10;}
	.st19{fill:none;stroke:#FFFFFF;stroke-width:1.1517;stroke-miterlimit:10;}
	.st20{fill:none;stroke:#FCED1C;stroke-width:1.1226;stroke-linecap:round;stroke-miterlimit:10;}
	.st21{fill:none;stroke:#009E9A;stroke-width:5.4185;stroke-miterlimit:10;}
	.st22{fill:#BDE4E6;stroke:#009E9A;stroke-width:0.7869;stroke-linecap:round;stroke-linejoin:round;stroke-miterlimit:10;}
	.st23{fill:#FCED1C;stroke:#009E9A;stroke-width:0.7869;stroke-linecap:round;stroke-linejoin:round;stroke-miterlimit:10;}
	.st24{fill:#FBED1F;}
	.st25{fill:#009F9B;}
</style>
<g>
	<path class="st5" d="M56.2,31.7c-0.5,0.1-1.3-0.1-1.2-0.8c0.1-0.7,1.4-1.2,2-1.3c0.8-0.2,1.5-0.4,2.3-0.4c1.5,0,3.1,0.2,4.5,0.8
		c0.8,0.3,1.5,0.8,2.2,1.3c0.4,0.3,1,0.9,1.1,1.4c0,0.1-0.4,0.1-0.7-0.1c-0.7-0.6-1.1-0.7-1.8-1.2c-0.8-0.5-1.9-0.9-2.9-0.9
		c-0.9-0.1-2,0.1-2.9,0.3C57.9,30.9,56.4,31.7,56.2,31.7z M43.9,31c-2.2-1.2-5.8-0.8-8,0.9c-1.4,1.1-0.7-0.2-0.6-0.3
		c0.8-0.7,1.4-1.1,2.1-1.4c1.1-0.5,2.1-0.7,3.3-0.8c1-0.1,2.7-0.1,3.8,0.3c0.8,0.3,2.4,0.8,1.6,1.9c-0.2,0.2-0.7,0.3-1,0.2
		C45,31.6,44.3,31.2,43.9,31z M53.5,43c0.2-2.4-0.1-5.6-0.4-5.6C52.8,37.4,53.1,41.5,53.5,43z M48.9,37.4c-0.3,0-0.5,3.2-0.1,5.6
		C49.3,41.5,49.2,37.5,48.9,37.4z M56.3,44.7c-0.2-0.2-0.7-0.8-0.8-0.8c-0.1,0.1,0.6,1.1,0.7,1.3c0.1,0.3,0.3,1.6-0.7,1.7
		c-0.3-0.2-2.2-0.6-2.8,0.4c-0.5,0.8-1.6,0.6-2,0.1c-0.5-0.8-2.4-0.9-3.4-0.2c-0.5,0.2-2-0.4-1.4-1.4c0.3-0.6,1-1.7,0.9-1.8
		c-0.1,0-0.6,0.6-1,1.1c-1.3,1.7,0.4,2.9,1,2.9c0.3,0,0.9-0.2,0.9-0.2c0.2,0,1.3-0.5,2.1-0.1c1.5,1.5,3.2,0.6,3.4,0.1
		c0.4-0.4,1.7-0.1,2.1-0.2C56.1,47.5,57.8,46.2,56.3,44.7z M66.2,37.5c0.3,0.1,0.6,0.3,1,0.4c0.8,0.3,1.3,0,0.8-0.2
		c-0.5-0.2-1-0.4-1.6-0.5c-0.2,0-0.6-0.1-0.7,0.1C65.6,37.4,66.2,37.5,66.2,37.5z M68.8,36c0.7-0.5-0.2-0.5-0.7-0.3
		c-0.7,0.3-1.4,0.5-2.1,0.6c-0.2,0-0.5,0.2-0.2,0.2C66.4,36.7,68,36.5,68.8,36z M33.5,38.2c-0.4,0.3,0.5,0.2,1.1-0.2
		c0.4-0.3,0.6-0.4,1.1-0.7c0.4-0.2,0.6-0.4,0.1-0.3C35.3,37,34,37.8,33.5,38.2z M35.4,35.9c-0.7,0.4-1.6,0.5-2.5,0.2
		c-0.6-0.2-0.3,0.3,0.5,0.5c0.8,0.2,1.5,0,2.1-0.4C36.2,35.8,36.1,35.5,35.4,35.9z M49,59.5c0.5-0.2,3.5-0.7,5.5,0.1
		c0.9,0.4,2,0.1,1.5-0.2c-2.7-1.6-6-1.2-8.5-0.1C46.1,59.9,48.2,59.8,49,59.5z M44.9,35.7c-0.5-0.5-0.9-0.9-1.4-1.1
		c0.1,0.2,0.1,0.4,0.1,0.6c0,0.5-0.2,0.9-0.5,1.2C43.7,36.3,44.3,36.1,44.9,35.7z M41.9,35c0-0.3-0.2-0.5-0.5-0.5
		c-0.3,0-0.5,0.2-0.5,0.5s0.2,0.5,0.5,0.5C41.7,35.5,41.9,35.3,41.9,35z M45.6,35.7c-2.6,2.1-6.9,0.9-6.8,0.8
		c0.2-0.2,0.5-0.1,0.9-0.1s0.7,0.1,1.2,0.1c-0.4-0.3-0.7-0.8-0.7-1.4c0-0.4,0.1-0.7,0.3-0.9c-0.8,0.2-1.5,0.5-1.9,0.8
		c-0.5,0.4-1.4,0.7-0.9,0.2c1-1.1,2.3-2,3.9-2S44.7,34.5,45.6,35.7z M60.6,35c0-0.3-0.2-0.5-0.5-0.5c-0.3,0-0.5,0.2-0.5,0.5
		s0.2,0.5,0.5,0.5C60.4,35.5,60.6,35.3,60.6,35z M59.5,36.5c-0.4-0.3-0.6-0.8-0.6-1.3c0-0.2,0-0.4,0.1-0.6c-0.5,0.3-1.3,0.6-1.8,1.1
		C57.8,36.2,58.9,36.4,59.5,36.5z M63.8,35.1c-0.5-0.3-1.1-0.6-1.8-0.8c0.2,0.3,0.3,0.6,0.3,0.9c0,0.6-0.3,1-0.7,1.4
		c0.4-0.1,0.9-0.1,1.2-0.2c0.1,0,0.8,0,0.2,0.2c-1,0.3-3.5,1-5.7-0.3c-0.1,0-0.8-0.4-0.7-0.5c0.8-1.2,2.6-2.5,4.2-2.5
		c1.7,0,2.9,0.8,3.9,2C65.1,35.8,64.3,35.4,63.8,35.1z M46,38.1c0.7-0.4-0.7-0.7-2.1-0.1c-1.8,0.7-3,0.9-4.7,1.1
		c-0.9,0.1-2.6,0.2-1.2,0.5C40,39.9,44.4,39.1,46,38.1z M55.3,35.3c2.3-1.4,4.8-3.6,7.4-2.3c1.1,0.6,1.7,1.4,2.9,2.2
		c0.2,0.2,0.9,0.4,0.7,0.3C64.9,34,63,32,61.1,32c-2.5,0-5,2.3-6.4,3.2C54.2,35.4,55.1,35.4,55.3,35.3z M42.1,32
		c-2.5-0.3-4.5,1.8-5.7,3.5c-0.3,0.4,1.3-0.9,1.5-1.1c1.2-1.3,1.9-1.9,3.6-1.9c1.6,0,2.9,1.5,4.6,2.6c0.2,0.2,1,0.2,0.5-0.2
		C46.6,34.9,43.9,32.2,42.1,32z M52,52.8c-0.3-0.2-0.5-0.4-0.9-0.5c-0.2,0-0.8,0.2-1,0.2c-0.2,0-2.2,0.6-2.9,0.8
		c-0.9,0.2-1.1,0.3-2,0.4c-1.1,0.2-2.3-0.2-0.1,0.8c6.2,2.3,9.2,1.3,10,1.1c1.5-0.4,4.8-2.6,3.5-2.5c-0.5,0.1-1.6-0.1-2-0.1
		c-0.6-0.1-2.2-0.5-2.7-0.6c-0.2,0-0.4,0-0.7,0c-0.1,0-0.8,0.4-0.9,0.5C52.4,52.9,52.1,52.9,52,52.8z M57.8,49
		c2.1,2.3,4.9,3.2,8,1.7c1.3-0.6,0.2-0.5-0.9-0.3c-2.1,0.4-4.2-0.3-5.5-1.2C57.8,48.2,56.7,47.9,57.8,49z M43,48.9
		c-1.8,1.8-5.9,2.6-7.7,1.5c-0.6-0.3-0.4,0.2,0,0.5c2.1,1.6,5.6,2,8.4-1.5C44,48.9,44.7,47.2,43,48.9z M53.5,43
		c0.2-2.4-0.1-5.6-0.4-5.6C52.8,37.4,53.1,41.5,53.5,43z M48.9,37.4c-0.3,0-0.5,3.2-0.1,5.6C49.3,41.5,49.2,37.5,48.9,37.4z
		 M56.3,44.7c-0.2-0.2-0.7-0.8-0.8-0.8c-0.1,0.1,0.6,1.1,0.7,1.3c0.1,0.3,0.3,1.6-0.7,1.7c-0.3-0.2-2.2-0.6-2.8,0.4
		c-0.5,0.8-1.6,0.6-2,0.1c-0.5-0.8-2.4-0.9-3.4-0.2c-0.5,0.2-2-0.4-1.4-1.4c0.3-0.6,1-1.7,0.9-1.8c-0.1,0-0.6,0.6-1,1.1
		c-1.3,1.7,0.4,2.9,1,2.9c0.3,0,0.9-0.2,0.9-0.2c0.2,0,1.3-0.5,2.1-0.1c1.5,1.5,3.2,0.6,3.4,0.1c0.4-0.4,1.7-0.1,2.1-0.2
		C56.1,47.5,57.8,46.2,56.3,44.7z M49,59.5c0.5-0.2,3.5-0.7,5.5,0.1c0.9,0.4,2,0.1,1.5-0.2c-2.7-1.6-6-1.2-8.5-0.1
		C46.1,59.9,48.2,59.8,49,59.5z M52,52.8c-0.3-0.2-0.5-0.4-0.9-0.5c-0.2,0-0.8,0.2-1,0.2c-0.2,0-2.2,0.6-2.9,0.8
		c-0.9,0.2-1.1,0.3-2,0.4c-1.1,0.2-2.3-0.2-0.1,0.8c6.2,2.3,9.2,1.3,10,1.1c1.5-0.4,4.8-2.6,3.5-2.5c-0.5,0.1-1.6-0.1-2-0.1
		c-0.6-0.1-2.2-0.5-2.7-0.6c-0.2,0-0.4,0-0.7,0c-0.1,0-0.8,0.4-0.9,0.5C52.4,52.9,52.1,52.9,52,52.8z M57.8,49
		c2.1,2.3,4.9,3.2,8,1.7c1.3-0.6,0.2-0.5-0.9-0.3c-2.1,0.4-4.2-0.3-5.5-1.2C57.8,48.2,56.7,47.9,57.8,49z M43,48.9
		c-1.8,1.8-5.9,2.6-7.7,1.5c-0.6-0.3-0.4,0.2,0,0.5c2.1,1.6,5.6,2,8.4-1.5C44,48.9,44.7,47.2,43,48.9z M58.6,38.1
		c-0.9-0.3-2.4-0.6-1.4,0.1c1.9,1.4,5.4,1.4,7.6,0.4c0.9-0.4,0.4-0.5-0.9-0.3C62.1,38.7,60.1,38.6,58.6,38.1z M27.9,46
		c0.4-0.1,0.1-1-0.1-1.8c-0.2-0.7-0.3-1-0.6-1.5c0,0-0.1,0.4,0,1.2c0.2,0.6,0.4,1.2-0.1,1.8c-0.8,0.9,0.4,2.6,0.5,2.9
		c0.2,0.3,0.6,1.1,0.6,0.6c0-0.5-0.3-1.4-0.6-1.6C27.1,47.3,27.3,46.1,27.9,46z M73.5,43.2c0,0.3-0.4,2,0.2,2.5c0.5,1,0.2,3-1.2,3.2
		c-0.2,0.1,0,0-0.2,0.1c-0.2,0.1-0.4,0.7-0.5,0.8c0-0.6,0.1-1.4,0.4-1.6c1.1,0.2,1.6-2,0.7-2.1c-0.4-0.1-0.2-0.9-0.1-1.8
		c0.1-0.9,0.3-1.3,0.3-1.6C73.3,42.2,73.5,43,73.5,43.2z"/>
	<path class="st5" d="M26.6,28.9c0.3-0.8,1.5-0.4,1.2,0.3c-1.4,4.2-3.4,9.2-8.2,10.2c-0.8,0.2-1.1-1-0.3-1.2
		C23.6,37.3,25.3,32.7,26.6,28.9z M51.6,9c0.5,0.6-0.4,1.5-0.9,0.9c-1.3-1.5-3.4-1.9-5.2-1.4c-2.1,0.5-3.8,2-5.3,3.6
		c-1.5,1.6-2.9,3.4-4.7,4.7c-1.8,1.5-4,2.3-6.2,3.2c-0.8,0.3-1.1-0.9-0.3-1.2c2.1-0.8,4.2-1.6,5.9-3c2.9-2.4,4.8-5.7,8.1-7.5
		C45.6,6.6,49.4,6.4,51.6,9z M69.4,15.7c-0.8-0.3-0.4-1.5,0.3-1.2c4.9,1.9,3.8,8,6.3,11.6c0.5,0.7-0.6,1.3-1.1,0.6
		c-1.3-1.9-1.6-4.2-2.2-6.4C72.3,18.5,71.4,16.4,69.4,15.7z M50.7,83.2c-8.2,0-15-2.4-16.2-5.5c1.1-0.5,2-1.1,2.2-1.3
		c2.4-1.9,3.1-4.1,3.2-6.4c0.1-1.3,0.1-2.7-0.1-3.8c0.9,0.6,1.8,1.1,2.6,1.4c1.2,1.5,3.8,4.4,3.8,4.4l1.3,4.9c0,0-0.3-4.9-0.4-5.4
		c-0.2-0.4-0.9-1.4-2.3-2.8c3.4,2,10.8,2.1,11.5,0.6c-0.3,0.7-1.5,2.1-1.6,2.6c-0.1,0.5-0.5,5.1-0.5,5.1l1.5-4.9c0,0,1.6-1.7,2.4-3
		c0.6-0.3,1.4-0.6,2.1-1.1c-0.4,1.7,0.2,5.2,1.3,6.8c0.8,1.2,2.1,2,3.4,2.6c0.1,0.1,0.9,0.4,1.7,0.7C65,81.1,58.4,83.2,50.7,83.2z
		 M31.3,56c0.6-0.5,1.4-1.3,1.4-2.2c0-0.4-0.1-0.8-0.3-1.2c-0.2-0.3-0.5-0.6-0.8-0.9c-0.5-0.3-1-0.5-1.5-0.5c-0.2,0-0.4,0-0.6,0.1
		c-0.4-1.2-0.7-2.3-0.7-2.3s0.1,1.2,0.3,2.4c-0.6,0.2-1.1,0.7-1.3,1.2c-1-0.5-2.3-1.6-2.8-3.8c-1-4.4,0.1-8.4,2.7-8.4
		c0.4,0,0.8,0.1,1.2,0.3c2.8-10,8.8-24.9,18.8-24.9c1.8,0,3.8,0.5,5.9,1.6c1.8-0.5,3.4-0.7,4.8-0.7c7.7,0,9.4,6.5,11.3,13.3
		c0.2,0.8,0.4,1.5,0.5,2.2c0.9,3.9,1.1,7.2,1.1,8.1c0.4-0.2,0.8-0.2,1.1-0.2c2.4,0,2.9,4.1,2.6,6.9c-0.4,3.3-1.3,5.1-2.2,5.8
		c-0.3-0.3-0.7-1-1.1-1.2c-0.2-0.1-0.5-0.2-0.7-0.2c0.1-0.9,0.1-1.6,0.1-1.6s-0.2,0.7-0.5,1.5c-1.4,0-2.6,1.2-2.6,2.6
		c0,0.3,0.1,0.6,0.2,0.9c0.1,0.4,0.8,1,1.1,1.2C59.6,75.9,40.4,70.5,31.3,56z M31.3,55.1c-0.1,0.1-0.1,0.1-0.2,0.2L31,55.4
		c-0.2,0.1-0.5,0.2-0.8,0.2c-0.2,0-0.4,0-0.5-0.1c-0.1,0-0.2-0.1-0.3-0.1l0,0c-0.1-0.1-0.2-0.1-0.3-0.2L29,55.1L28.9,55
		c-0.1-0.1-0.2-0.3-0.2-0.5v-0.1v-0.1c0-0.1,0-0.2,0-0.3c0-0.3,0.1-0.6,0.2-0.8c0-0.1,0.1-0.2,0.2-0.2c0.1-0.2,0.3-0.3,0.5-0.4
		c0.1,0,0.1-0.1,0.2-0.1c0.1,0,0.2-0.1,0.4-0.1h0.1c0.1,0,0.1,0,0.2,0h0.1c0.1,0,0.3,0,0.4,0.1c0.1,0,0.2,0.1,0.4,0.2
		c0,0,0.1,0,0.1,0.1c0.2,0.1,0.3,0.2,0.4,0.4c0,0.1,0.1,0.1,0.1,0.2c0,0.1,0.1,0.1,0.1,0.2c0,0.1,0.1,0.2,0.1,0.3c0,0.1,0,0.2,0,0.3
		C31.9,54.3,31.7,54.7,31.3,55.1C31.4,55,31.3,55.1,31.3,55.1z M72.3,54.6c-0.1,0.2-0.2,0.3-0.3,0.4c-0.2,0.2-0.4,0.4-0.7,0.5
		c-0.1,0-0.2,0.1-0.3,0.1c-0.1,0-0.3,0.1-0.4,0.1c-0.2,0-0.3,0-0.5-0.1c-0.1,0-0.2-0.1-0.3-0.1c-0.1-0.1-0.3-0.2-0.4-0.3l-0.1-0.1
		c-0.1-0.1-0.1-0.2-0.2-0.3c0-0.1-0.1-0.2-0.1-0.2v-0.1v-0.1c0-0.1,0-0.2,0-0.3c0-0.8,0.6-1.5,1.4-1.7c0.1,0,0.2,0,0.3,0
		c0.1,0,0.1,0,0.2,0l0,0c0.1,0,0.2,0,0.3,0.1c0.1,0,0.1,0,0.2,0.1c0.2,0.1,0.3,0.2,0.4,0.3l0.1,0.1l0.1,0.1c0.1,0.1,0.2,0.3,0.2,0.4
		c0.1,0.2,0.1,0.4,0.1,0.6c0,0.1,0,0.2,0,0.3C72.4,54.3,72.3,54.4,72.3,54.6C72.3,54.5,72.3,54.5,72.3,54.6z M97.2,98.3l-3.4-12.6
		c0-0.1-0.1-0.2-0.2-0.2c0,0-29-10.2-29.7-10.5c-0.1-0.1-0.3-0.1-0.4-0.2c0.2-0.1,0.4-0.1,0.6-0.2c28-12.5,23.7-68.4-3-68.4
		c-1.4,0-2.9,0.2-4.5,0.5c-3.4-3.8-7.3-5.4-11.3-5.4l0,0v1.8c3.8,0,7.1,1.6,10,4.8L56,8.7l1-0.2C58.4,8.1,59.9,8,61.2,8
		c4.8,0,8.9,1.9,12.4,5.8c3.2,3.6,5.6,8.7,6.9,14.8c1.8,8.4,1.3,17.9-1.4,25.9c-1.4,4.2-3.4,8-6,11c-2.7,3.3-5.9,5.8-9.5,7.5
		c-0.4,0.2-0.5,0.4-0.8,0.1c-1.2-1.9-1-4.4,0-6.4c0-0.1,0.1-0.1,0.1-0.1c2.8-2.2,4.7-4.4,7.8-10.1h0.1c1.4,0,2.5-1.1,2.6-2.4
		c1.6-1.3,2.6-3.1,3-7c0.2-2.1,0.4-5.6-1.3-7.5c-0.6-0.7-1-1.1-1.9-1.2c-0.1-1.6-0.4-3.9-1-6.5c-0.2-0.8-0.4-1.6-0.6-2.3
		c-0.9-3.4-1.9-7-3.7-9.7c-1-1.6-2.2-2.7-3.7-3.6c-1.6-0.9-3.5-1.4-5.6-1.4c-1.4,0-2.9,0.2-4.6,0.6c-2.1-1-4.1-1.5-6.1-1.5
		c-2.8,0-5.4,1-7.9,2.9c-2,1.6-4,3.8-5.8,6.7c-3,4.8-5,11-6.3,15.5c-1.2,0-2.1,0.3-2.9,1.3c-1.8,2.2-1.6,5.7-0.9,8.7
		c0.5,2.2,1.4,3.6,2.8,4.5c0.4,0.2,0.6,0.9,1,1v0.1c0.1,0.4,0.3,0.7,0.6,0.9c0.4,0.5,1,0.7,1.6,0.8c1.9,3.1,4.4,5.9,7.5,8.3
		c0.2,0.3,0.6,1.4,0.7,3.2c0.1,1.7-0.1,3.4-0.6,4.3C37.3,73,37,73,36.9,73c-0.2,0-0.6-0.1-1.4-0.6c-4.1-3.1-6.9-5.5-9.3-8.7
		s-4.4-7.2-6.8-13.5L19.2,50l-0.1-0.2c-1.1-1.7-2-3.7-2.4-5.9c-0.4-2.1-0.5-4.4-0.3-6.9c0.4-4.7,2.1-9.8,4.7-14.7
		C24,16.9,27.9,12,32.2,8.6c4.5-3.6,9-5.5,13.1-5.5V1.3c-18.1,0-38.9,32.7-27.7,49.5c4.9,12.8,8.4,16.6,16.8,23
		c0.8,0.6,1.5,0.8,2.1,0.9C34.9,76.1,6.4,85.6,6.4,85.6c-0.1,0-0.2,0.1-0.2,0.2L2.8,98.3c0,0.2,0.1,0.4,0.3,0.4h93.9
		C97.1,98.7,97.3,98.5,97.2,98.3z"/>
</g>
</svg>
